<svg xmlns="http://www.w3.org/2000/svg" viewBox="0 0 32 32">
  <rect width="32" height="32" fill="#3d3428" rx="8"/>
  <path d="M16.007 5.5c-2.147 0-4.494.795-4.494 4.092 0 2.596 2.23 3.913 5.539 5.73 3.574 1.944 6.646 3.993 6.646 7.802 0 3.438-2.707 6.376-6.995 6.376-2.355 0-5.109-.786-5.109-4.184 0-.784.64-1.423 1.423-1.423.784 0 1.423.64 1.423 1.423 0 2.185 1.776 2.185 2.571 2.185 2.29 0 3.98-1.513 3.98-3.79 0-2.707-2.22-4.142-5.882-6.127-3.596-1.945-6.066-3.836-6.066-7.294C9.043 6.286 12.23 3.5 15.832 3.5c2.062 0 4.373.635 4.373 3.895 0 .784-.64 1.423-1.423 1.423-.784 0-1.423-.64-1.423-1.423 0-2.272-1.603-1.895-1.996-1.895H16.007z" fill="#f6f4f0"/>
</svg>